<?xml version="1.0" standalone="no"?>
<!DOCTYPE svg PUBLIC "-//W3C//DTD SVG 20010904//EN"
 "http://www.w3.org/TR/2001/REC-SVG-20010904/DTD/svg10.dtd">
<svg version="1.0" xmlns="http://www.w3.org/2000/svg"
 width="500.000000pt" height="500.000000pt" viewBox="0 0 500.000000 500.000000"
 preserveAspectRatio="xMidYMid meet">
<metadata>
Created by potrace 1.14, written by Peter Selinger 2001-2017
</metadata>
<g transform="translate(0.000000,500.000000) scale(0.100000,-0.100000)"
fill="#000000" stroke="none">
<path d="M533 3313 c-44 -43 -84 -87 -89 -98 -8 -16 -11 -178 -5 -242 1 -8 15
-13 36 -13 24 0 45 -8 62 -24 l26 -24 0 -283 c0 -207 -3 -284 -11 -287 -16 -5
-15 -61 1 -67 9 -4 12 -57 11 -223 l-1 -217 -26 -3 c-15 -2 -27 -9 -27 -16 0
-10 26 -13 106 -13 l105 1 61 -61 60 -60 -56 -56 c-31 -31 -56 -60 -56 -65 0
-4 29 -36 64 -71 l65 -64 65 64 c36 35 66 67 66 70 0 4 -58 66 -129 138 l-129
131 -71 0 -71 0 -1 38 c-3 176 1 396 9 405 19 25 21 47 5 62 -13 14 -15 54
-14 299 l0 283 -39 38 c-38 37 -40 42 -40 103 l0 63 80 82 80 81 39 -38 39
-38 0 -351 c0 -228 -4 -356 -11 -367 -14 -24 -2 -50 23 -50 26 0 37 27 22 51
-9 13 -12 123 -12 376 l0 357 -40 41 -39 40 1862 -2 c1024 -1 1900 -3 1947 -3
l84 0 -41 -42 -41 -43 1 -355 c0 -244 -3 -362 -11 -376 -19 -36 22 -60 48 -29
10 12 10 19 2 27 -9 9 -12 113 -12 373 l0 362 36 33 36 32 82 -81 81 -81 0
-60 c0 -57 -2 -63 -38 -99 l-38 -39 0 -290 c0 -246 -2 -291 -14 -296 -20 -7
-19 -53 0 -64 14 -7 15 -39 13 -227 l-3 -218 -70 2 -70 2 -132 -133 -132 -133
67 -68 66 -67 68 67 68 67 -57 58 -57 58 26 27 c14 16 39 43 56 62 l30 33 108
2 c79 1 108 4 112 14 2 7 -2 13 -9 11 -52 -7 -50 -16 -48 221 1 173 4 222 15
231 18 15 18 43 -1 59 -13 11 -15 55 -15 288 l0 276 27 28 c20 21 36 28 65 28
l38 0 0 127 0 128 -87 87 -88 88 -2026 0 -2027 0 -79 -77z m385 -1696 l52 -53
-55 -54 -55 -54 -54 53 -55 54 51 54 c29 29 54 53 57 53 3 0 30 -24 59 -53z
m3555 -2 l49 -54 -51 -50 c-28 -28 -54 -51 -57 -51 -3 0 -29 23 -56 51 l-51
50 54 55 c29 29 56 54 59 53 3 -1 27 -25 53 -54z"/>
<path d="M818 1596 l-27 -33 33 -35 34 -36 36 37 36 37 -33 32 c-18 18 -37 32
-42 31 -6 0 -22 -15 -37 -33z"/>
<path d="M4383 1601 c-18 -15 -33 -32 -33 -37 0 -6 15 -24 33 -42 l33 -32 37
38 37 38 -33 32 c-18 18 -35 32 -37 32 -3 -1 -20 -13 -37 -29z"/>
<path d="M1670 3270 c-5 -3 11 -23 36 -45 37 -33 52 -40 88 -40 46 -1 48 3 18
38 -14 16 -6 17 164 17 l180 0 39 -40 39 -40 407 0 407 0 36 40 36 40 182 0
182 0 -27 -28 -27 -28 50 0 c43 1 54 6 89 40 22 22 38 42 36 44 -7 7 -1925 8
-1935 2z"/>
<path d="M3685 2923 c-60 -59 -178 -285 -236 -450 -17 -48 -38 -97 -46 -110
-8 -12 -13 -29 -10 -37 3 -8 -8 -24 -26 -39 -18 -14 -63 -50 -102 -81 -162
-130 -321 -172 -341 -90 -15 60 62 210 128 248 24 15 28 15 42 0 17 -16 15
-48 -3 -83 -8 -14 -8 -22 0 -26 6 -4 12 -5 13 -4 26 35 36 60 36 90 0 50 -32
75 -88 70 -7 0 -68 -56 -135 -124 -152 -154 -246 -219 -301 -211 -26 4 -33 14
-41 55 -6 35 -6 36 39 53 59 23 132 95 147 146 11 35 10 42 -6 60 -24 26 -43
25 -90 -6 -37 -23 -92 -94 -308 -391 -52 -72 -70 -88 -88 -77 -13 8 -11 86 5
175 18 98 133 443 154 462 10 9 48 18 87 21 39 4 88 9 110 11 22 2 69 7 105
10 109 10 129 17 100 36 -16 10 -95 6 -307 -17 -49 -5 -63 -3 -63 7 0 7 16 48
36 90 39 83 41 128 5 95 -10 -9 -40 -59 -67 -111 -27 -54 -55 -95 -64 -96 -30
-2 -76 -8 -142 -19 -37 -5 -69 -10 -72 -10 -3 0 -6 -7 -6 -15 0 -18 29 -19
118 -5 108 18 108 19 57 -126 -38 -107 -71 -222 -91 -315 -3 -13 -7 -62 -10
-109 -6 -96 6 -133 45 -138 29 -4 88 57 187 194 l69 93 13 -45 c26 -90 110
-90 234 -1 35 25 73 55 85 66 12 12 23 21 25 21 2 0 3 -22 3 -50 0 -41 5 -54
28 -77 23 -24 35 -28 81 -27 82 1 160 36 280 125 l109 81 -7 -34 c-3 -18 -9
-44 -12 -58 -3 -14 -7 -66 -10 -116 -3 -75 -1 -94 12 -105 26 -21 41 -2 113
136 72 140 141 249 164 258 11 4 14 -10 16 -66 2 -78 20 -118 58 -123 36 -6
223 124 223 155 0 22 -23 22 -48 -1 -64 -59 -142 -109 -164 -106 -22 3 -23 8
-28 96 -5 100 -16 120 -54 100 -45 -24 -120 -130 -194 -275 -26 -51 -50 -93
-54 -93 -14 0 3 132 36 290 13 58 54 151 107 241 58 98 146 275 170 341 16 47
2 69 -26 41z m-967 -593 c-9 -29 -107 -115 -117 -104 -2 2 6 24 18 49 24 49
63 85 92 85 16 0 17 -4 7 -30z"/>
<path d="M1057 2507 c-46 -70 -125 -335 -134 -449 -5 -62 -4 -68 13 -68 29 0
37 9 88 100 68 121 129 211 141 207 6 -2 9 -33 7 -75 -4 -74 8 -112 34 -112 8
0 39 23 68 50 50 47 86 64 86 40 0 -22 50 -60 78 -60 29 0 106 43 131 73 20
25 31 21 31 -12 0 -34 23 -61 51 -61 33 0 92 45 172 131 42 45 79 80 81 78 3
-2 -2 -49 -9 -104 -8 -55 -17 -125 -20 -155 -9 -76 -21 -111 -64 -183 -21 -34
-48 -89 -61 -121 -21 -53 -22 -61 -9 -85 22 -39 54 -39 79 1 19 31 45 105 55
159 19 100 32 127 111 229 31 41 60 77 63 80 4 3 29 33 56 68 36 46 46 65 37
74 -15 15 -25 6 -118 -110 -114 -143 -107 -138 -100 -57 3 39 8 79 10 90 3 17
15 110 21 170 3 28 -5 45 -20 45 -8 0 -42 -35 -76 -77 -75 -94 -140 -158 -180
-178 -27 -14 -30 -14 -36 1 -8 22 15 122 38 162 11 19 17 38 14 43 -14 21 -35
5 -59 -44 -15 -33 -44 -69 -77 -97 -107 -92 -129 -98 -159 -47 -40 68 -48 68
-122 0 -26 -23 -51 -43 -57 -43 -5 0 -9 36 -8 83 1 45 -2 88 -6 95 -25 38 -89
-18 -166 -146 -27 -46 -52 -88 -54 -95 -2 -7 -8 -9 -12 -5 -15 14 40 207 99
346 25 59 27 82 7 82 -5 0 -15 -10 -24 -23z m748 -740 c-8 -20 -20 -37 -25
-37 -6 0 -3 17 6 38 9 20 19 46 22 57 7 20 7 20 10 0 1 -11 -4 -37 -13 -58z"/>
<path d="M2144 2075 c-4 -9 -4 -18 -2 -21 9 -8 39 8 35 19 -6 18 -27 20 -33 2z"/>
<path d="M2027 1820 c-21 -11 -37 -30 -46 -56 -12 -35 -12 -44 3 -75 16 -34
71 -77 83 -65 4 3 13 0 21 -6 11 -10 17 -9 27 5 13 18 31 24 20 7 -3 -5 -4
-10 0 -10 3 0 10 12 15 26 6 15 14 22 22 18 7 -4 8 -3 4 4 -4 7 -2 12 4 12 7
0 5 6 -4 15 -20 20 -31 19 -65 -6 -26 -19 -32 -20 -57 -8 -30 15 -40 49 -24
79 7 12 16 17 27 13 10 -4 14 -2 9 5 -11 18 34 5 58 -16 12 -11 27 -17 35 -14
8 2 11 0 8 -5 -3 -5 0 -10 7 -10 15 0 11 18 -12 55 -30 46 -84 59 -135 32z"/>
<path d="M2316 1819 c-15 -21 -13 -27 27 -102 23 -44 50 -82 59 -84 10 -3 15
-9 12 -14 -3 -5 0 -9 5 -9 6 0 11 5 11 11 0 5 5 7 10 4 6 -3 10 -4 10 -1 0 5
-108 205 -115 214 -2 2 -10 -7 -19 -19z"/>
<path d="M2485 1831 c-12 -11 -4 -41 11 -41 9 0 12 -5 8 -12 -5 -9 -2 -9 9 1
11 9 17 10 17 2 0 -6 5 -11 11 -11 5 0 8 4 5 8 -2 4 4 9 15 9 12 1 19 -3 16
-10 -2 -7 -24 -13 -49 -15 l-46 -3 0 -65 c0 -46 4 -64 13 -64 7 0 15 -6 18
-12 8 -24 20 2 21 46 0 25 4 42 8 40 4 -3 8 -1 8 4 0 5 7 9 15 9 8 0 13 -2 11
-5 -11 -11 74 -96 99 -99 11 -1 14 0 7 3 -6 3 -9 10 -6 15 3 6 -1 18 -9 27 -8
9 -22 32 -31 50 -17 33 -17 34 3 39 12 3 21 10 21 15 0 5 -6 6 -12 2 -7 -4 -4
3 7 15 15 17 16 24 6 30 -7 5 -12 12 -12 17 1 9 -156 14 -164 5z"/>
<path d="M2722 1826 c-12 -21 -10 -33 10 -45 11 -7 17 -8 14 -3 -8 13 27 10
36 -3 5 -6 8 -5 8 3 0 6 5 12 11 12 5 0 7 -5 3 -12 -5 -7 -3 -8 7 -2 19 12 42
11 51 -1 5 -6 8 -5 8 3 0 6 5 12 11 12 5 0 7 -6 3 -12 -4 -7 1 -6 10 3 11 10
14 22 9 35 -7 16 -19 19 -91 20 -49 0 -86 -4 -90 -10z"/>
<path d="M2941 1832 c-18 -6 -12 -36 10 -50 12 -8 18 -9 15 -4 -7 12 13 10 33
-2 10 -6 12 -5 7 2 -4 7 -3 12 3 12 5 0 12 -6 14 -12 4 -10 6 -10 6 0 1 6 6
12 12 12 5 0 7 -6 3 -12 -5 -10 -4 -10 6 -1 11 10 17 10 29 0 12 -9 13 -9 7 1
-4 6 -3 12 1 12 5 0 15 -6 22 -12 11 -10 13 -10 7 0 -4 6 -3 12 3 12 7 0 7 7
0 23 -9 20 -17 22 -88 23 -44 0 -84 -2 -90 -4z"/>
<path d="M3147 1819 c-6 -22 0 -29 27 -29 17 0 18 -2 6 -10 -8 -5 -10 -10 -4
-10 5 0 15 5 22 12 9 9 12 9 12 -1 0 -11 3 -11 15 -1 17 14 31 8 20 -9 -3 -6
-26 -11 -51 -11 -41 0 -44 -2 -45 -27 -2 -63 3 -99 18 -113 9 -8 13 -10 9 -4
-3 7 1 14 9 17 10 4 12 1 8 -11 -3 -9 -3 -14 2 -10 11 10 13 50 3 71 -6 12 -5
17 6 17 8 0 17 6 19 13 4 10 6 10 6 0 1 -7 7 -13 14 -13 7 0 21 -16 30 -35 15
-31 26 -40 50 -36 4 0 7 -5 7 -12 0 -9 3 -8 9 2 6 9 -1 29 -20 59 -34 54 -36
68 -10 84 11 6 17 18 13 26 -3 9 -1 13 5 9 8 -5 8 -1 1 15 -10 21 -18 23 -94
24 -71 0 -83 -2 -87 -17z"/>
<path d="M3525 1831 c-9 -9 -5 -41 6 -41 5 0 7 -5 3 -12 -5 -8 -3 -8 7 -2 17
11 59 13 53 2 -3 -4 0 -8 5 -8 6 0 11 5 11 11 0 8 6 7 17 -2 11 -10 14 -10 9
-1 -4 6 -2 12 3 12 6 0 11 -5 11 -12 0 -9 3 -9 12 0 7 7 17 12 23 12 5 0 3 -5
-5 -10 -12 -8 -10 -9 7 -7 12 2 26 7 30 12 5 4 2 5 -5 1 -8 -5 -13 -3 -11 5 5
42 1 44 -86 44 -47 1 -88 -1 -90 -4z"/>
<path d="M4009 1775 c0 -33 -1 -77 -2 -98 -1 -27 4 -43 17 -55 11 -9 16 -11
12 -4 -4 6 -3 12 3 12 5 0 12 -6 15 -12 2 -7 3 8 2 34 -2 30 0 45 7 41 6 -4 7
-1 2 7 -5 8 -9 37 -10 64 -3 74 -3 75 -25 73 -18 -1 -20 -9 -21 -62z"/>
<path d="M4093 1831 c-15 -11 -14 -41 2 -41 8 0 15 -5 15 -11 0 -6 5 -7 13 -2
17 11 79 11 68 0 -4 -4 -30 -11 -57 -15 l-49 -7 0 -63 c-1 -46 3 -62 13 -62 7
0 11 -4 8 -9 -4 -5 2 -7 12 -4 14 3 18 13 17 44 -1 21 2 44 7 51 6 10 8 10 8
1 0 -7 5 -13 11 -13 5 0 7 5 4 10 -3 6 -4 10 -1 10 3 0 23 -24 46 -54 26 -36
46 -54 59 -53 22 1 19 14 -16 69 -27 44 -28 54 -8 61 8 4 12 15 10 27 -2 11 0
20 4 20 5 0 6 10 4 23 -4 22 -9 23 -84 23 -43 0 -82 -2 -86 -5z"/>
<path d="M3835 1810 c-9 -27 74 -180 97 -180 9 0 18 -6 21 -12 3 -9 8 -10 15
-3 11 12 -96 214 -115 215 -6 0 -15 -9 -18 -20z"/>
<path d="M2036 1755 c-9 -26 -7 -32 5 -12 6 10 9 21 6 23 -2 3 -7 -2 -11 -11z"/>
<path d="M2247 1698 c-25 -47 -30 -64 -20 -66 7 -2 11 -7 9 -11 -3 -4 5 -8 17
-8 18 -2 19 0 7 8 -12 9 -10 10 8 6 17 -4 21 -2 13 6 -6 8 -5 19 5 31 8 11 14
16 14 10 0 -5 5 -1 11 8 7 13 5 26 -6 48 -8 16 -17 30 -19 30 -2 0 -20 -28
-39 -62z"/>
<path d="M2719 1758 c-1 -2 -2 -31 -3 -65 -2 -49 0 -63 11 -63 8 0 11 -4 8
-10 -3 -5 -2 -10 4 -10 5 0 12 6 15 13 5 9 7 9 12 -1 4 -10 9 -10 19 -2 9 7
20 8 32 2 10 -5 34 -8 53 -7 29 1 34 5 32 21 -6 39 -10 40 -74 38 -66 -2 -69
0 -59 45 1 2 12 -4 26 -13 20 -13 23 -14 19 -1 -7 17 29 13 52 -6 12 -10 13
-9 8 6 -5 12 -4 16 3 12 7 -4 10 0 8 10 -2 10 -4 21 -4 26 -1 6 -159 11 -162
5z"/>
<path d="M2930 1695 c0 -58 2 -65 20 -65 11 0 20 -5 20 -11 0 -8 4 -8 15 1 8
6 20 8 27 4 18 -11 88 -12 81 -1 -3 5 3 6 15 3 18 -6 20 -3 17 15 -6 32 -10
33 -77 34 -49 0 -62 3 -64 17 -2 18 32 32 42 17 3 -5 14 -4 26 2 16 9 19 8 13
-2 -6 -9 -3 -11 9 -6 10 4 21 7 26 7 4 0 7 8 5 18 -2 9 -4 20 -4 25 -1 4 -39
7 -86 7 l-85 0 0 -65z"/>
<path d="M3305 1749 c-4 -6 -5 -12 -2 -15 2 -3 7 2 10 11 7 17 1 20 -8 4z"/>
<path d="M3517 1708 c1 -29 2 -59 2 -65 1 -7 8 -13 17 -13 8 0 12 -4 9 -10 -3
-6 1 -7 9 -4 12 4 15 17 12 49 -2 35 0 42 12 37 8 -3 13 -1 10 4 -4 5 7 9 22
9 15 0 26 -3 23 -7 -2 -5 3 -8 12 -8 10 0 13 5 9 13 -6 8 -3 8 9 -1 24 -20 39
-6 25 23 -11 24 -16 25 -92 25 l-81 0 2 -52z"/>
<path d="M3773 1701 c-38 -68 -38 -71 -18 -71 8 0 15 -4 15 -8 0 -5 7 -9 14
-9 8 0 14 3 13 6 -3 15 15 51 24 46 5 -4 9 0 10 7 0 7 2 21 4 30 2 10 -4 27
-13 38 -17 20 -18 19 -49 -39z"/>
<path d="M2285 1650 c-3 -5 -1 -10 4 -10 6 0 11 5 11 10 0 6 -2 10 -4 10 -3 0
-8 -4 -11 -10z"/>
<path d="M439 1518 c-1 -13 -2 -70 -2 -128 l-1 -105 86 -88 86 -87 848 0 848
0 -46 44 -45 45 -764 0 -764 0 -87 90 -88 89 0 81 0 81 -35 0 c-29 0 -35 -4
-36 -22z"/>
<path d="M4769 1518 c-1 -13 -2 -49 -2 -80 l-1 -57 -91 -91 -90 -90 -761 0
-760 0 -49 -45 -50 -45 850 0 850 0 88 88 87 87 0 128 0 127 -35 0 c-29 0 -35
-4 -36 -22z"/>
<path d="M611 1451 c-34 -33 -61 -65 -61 -72 0 -15 111 -129 125 -129 6 0 39
28 73 63 l63 63 -65 67 c-36 37 -67 67 -70 67 -3 0 -32 -27 -65 -59z m119
-126 l-55 -55 -54 55 -55 54 54 55 55 54 55 -54 55 -54 -55 -55z"/>
<path d="M640 1415 l-34 -35 35 -35 35 -35 34 35 34 35 -35 35 -35 35 -34 -35z"/>
<path d="M4530 1445 l-65 -65 68 -68 67 -67 67 67 68 68 -65 65 c-35 36 -67
65 -70 65 -3 0 -35 -29 -70 -65z m178 -62 c2 -1 -21 -27 -51 -57 l-55 -56 -51
49 c-28 27 -51 52 -51 56 0 4 21 31 48 60 l47 53 55 -52 c30 -28 56 -52 58
-53z"/>
<path d="M4561 1414 l-33 -37 36 -36 36 -36 37 37 37 38 -34 35 c-19 19 -36
35 -40 35 -3 0 -20 -16 -39 -36z"/>
<path d="M862 1387 c-29 -29 -52 -56 -52 -59 0 -4 23 -30 52 -58 l52 -51 52
52 c60 59 60 60 -8 126 l-44 43 -52 -53z m100 -18 l41 -40 -44 -45 -43 -44
-45 45 -45 45 39 40 c21 22 43 40 47 40 5 0 27 -18 50 -41z"/>
<path d="M882 1357 c-28 -30 -28 -35 5 -63 l28 -24 29 30 30 29 -30 26 c-35
31 -35 31 -62 2z"/>
<path d="M4312 1387 c-28 -29 -52 -56 -52 -59 0 -4 23 -30 51 -58 l52 -52 56
56 56 56 -55 55 -55 55 -53 -53z m97 -103 l-45 -44 -42 40 c-23 22 -42 44 -42
47 0 4 19 26 42 50 l42 43 45 -46 44 -45 -44 -45z"/>
<path d="M4331 1356 c-19 -20 -21 -27 -10 -43 25 -40 44 -44 73 -14 l26 28
-24 26 c-31 33 -37 33 -65 3z"/>
</g>
</svg>
