<svg fill="none" height="402" viewBox="0 0 1800 402" width="1800" xmlns="http://www.w3.org/2000/svg" xmlns:xlink="http://www.w3.org/1999/xlink"><linearGradient id="a" gradientUnits="userSpaceOnUse" x1="-62.0319" x2="496.222" y1="200.136" y2="200.136"><stop offset="0" stop-color="#00cd88"/><stop offset="1" stop-color="#00c9d7"/></linearGradient><path d="m380.829 143.674c-3.137-5.647-6.274-10.666-8.156-15.058s-3.764-10.666-5.019-17.567c-4.392-16.3122-9.411-36.3889-25.723-52.7012-15.685-15.6849-36.389-21.3315-52.702-25.7232-6.274-1.8822-12.548-3.137-17.567-5.0192-4.391-1.8822-9.411-5.0192-15.057-8.1561-14.43-8.7836-32.625-19.4493-56.466-19.4493-23.213 0-41.408 10.6657-56.465 19.4493-5.647 3.1369-10.666 6.2739-15.058 8.1561s-10.666 3.7644-17.567 5.0192c-16.3123 4.3917-36.3889 9.4109-52.7012 25.7232s-21.3315 36.389-25.7232 52.7012c-1.8822 6.274-3.137 12.548-5.0192 17.567-1.8822 4.392-5.0192 9.411-8.1561 15.058-8.7836 14.43-19.4493 33.252-19.4493 56.465 0 23.214 10.6657 41.408 19.4493 56.466 3.1369 5.646 6.2739 10.666 8.1561 15.057 1.8822 4.392 3.7644 10.666 5.0192 17.567 4.3917 16.313 9.4109 36.389 25.7232 52.702 15.6849 15.685 36.3889 21.331 52.7012 25.723 6.274 1.882 12.548 3.137 17.567 5.019 4.392 1.882 9.411 5.019 15.058 8.156 14.43 8.784 32.624 19.449 56.465 19.449 23.214 0 41.408-10.665 56.466-19.449 5.646-3.137 10.666-6.274 15.057-8.156 4.392-1.882 10.666-3.764 17.567-5.019 16.313-4.392 37.017-9.411 52.702-25.723 15.684-15.685 21.331-36.389 25.723-52.702 1.882-6.274 3.137-12.547 5.019-17.567 1.882-4.391 5.019-9.411 8.156-15.057 8.784-14.43 19.449-32.625 19.449-56.466 0-23.213-10.665-41.408-19.449-56.465zm-255.977-13.176c-2.51-.627-5.647-1.254-7.529-3.137-8.784-7.528 5.647-13.175 11.293-14.43 29.488-6.901 59.603-10.665 89.718-10.665 16.312 0 32.624.627 48.937 4.391 6.901 1.882 14.43 4.392 20.076 8.784 2.51 2.509 5.019 5.019 5.647 8.783.627 3.765-1.882 7.529-5.647 8.157-3.137 0-6.274-1.883-8.783 0-1.883 1.254-1.883 4.391-1.255 6.273 3.137 13.176 18.194 21.332 22.586 34.507.627 1.882.627 3.765-.627 5.019-1.255 1.255-2.51 1.255-3.765 1.883-6.901 1.254-13.802 2.509-20.704 1.882-6.901 0-13.802-1.882-19.449-6.274-8.156-6.274-11.293-16.94-17.567-24.469-6.901-8.783-16.94-13.802-27.605-16.312-1.883-.627-4.392-1.255-6.274-1.255-13.176-1.882-26.351-1.254-38.899 0-14.43 0-27.605 0-40.153-3.137zm63.367 73.406c-13.176 1.254-26.978-.628-39.526-4.392-3.765-1.255-7.529-2.51-10.039-5.019-5.019-5.647-2.509-16.313 1.883-21.959 5.019-6.274 13.802-8.156 21.331-9.411 13.175-2.51 26.978-3.764 40.153-3.764 5.647 0 11.294.627 15.685 3.764 5.019 3.764 7.529 10.038 9.411 16.312.628 1.255.628 2.51.628 3.137v1.882c-.628 1.883-1.883 3.137-3.137 4.392-9.411 8.784-22.587 13.803-36.389 15.058zm45.8 47.054c-5.647-1.255-11.921-3.137-17.568-4.391-2.509-.628-5.019-1.883-6.901-3.137-1.882-1.255-3.137-3.765-3.137-6.274 0-1.883 0-3.765.628-6.274 0-1.883 0-3.765 0-5.647 0-2.51.627-5.019 2.509-6.901s4.392-3.765 6.901-5.019c6.274-3.137 12.548-6.274 18.195-9.411 5.647-2.51 11.293-3.137 16.94-1.255 4.391 1.255 9.411 3.137 13.802 4.392 5.647 1.882 8.784 5.646 8.784 11.293 0 3.137 0 6.901.627 10.038 0 5.647-2.509 10.038-7.528 12.548-5.02 2.51-10.039 5.019-14.431 7.529-3.137 1.882-6.901 3.137-10.665 3.137-2.51.627-5.647 0-8.156-.628zm71.523 18.195c-.628 5.646-1.255 10.665-2.51 15.685-.627 5.019-3.137 8.783-7.529 11.293-4.391 2.509-8.783 5.019-13.175 7.529-2.51 1.254-5.019 1.882-7.529 2.509-1.882-.627-3.764-1.255-5.646-1.882-4.392-1.882-8.156-4.392-12.548-6.901-4.392-1.883-5.647-5.647-4.392-10.039 1.255-5.019 2.51-10.038 4.392-15.685 1.255-4.391 4.392-7.528 8.156-10.038 6.274-3.764 12.548-6.901 18.822-10.666 3.764-1.882 7.529-1.882 11.293.628 2.51 1.882 4.392 3.764 6.901 5.019 3.137 3.764 3.765 7.529 3.765 12.548zm18.194-31.997c-.627 3.764-3.137 8.156-6.901 10.038-.628.627-1.255.627-2.51.627-.627 0-1.255-.627-1.882-1.254-3.764-2.51-6.901-5.647-9.411-9.411-6.901-10.666-6.274-29.488 3.764-38.272.628-.627 1.255-.627 1.883-1.254 1.254 0 1.882.627 3.137 1.254 7.528 5.647 10.038 16.313 11.92 25.724.628 3.137.628 6.274.628 9.411 0 1.254-.628 1.882-.628 3.137z" fill="url(#a)"/><g fill="#000"><path d="m713.976 97.2598c-4.392 0-8.156 1.2548-11.293 3.7642-2.51 1.882-5.019 5.019-6.902 8.156-20.076 29.488-40.78 58.975-60.857 88.463-18.822-26.978-37.016-53.956-55.838-80.934-4.392-5.647-8.156-11.92-14.43-15.685-3.765-2.5094-8.156-3.7642-12.548-3.7642-3.137 0-8.156.6274-8.784 4.3922-.627 2.509 0 5.646 0 8.156v8.156 16.94 67.131 67.131 4.392h33.88c0-32.625 0-65.249.627-97.874 15.057 21.332 30.115 43.291 45.172 64.622 3.137 4.392 7.529 9.411 12.548 8.156 3.137-.627 5.02-2.509 6.902-5.019 18.194-20.704 29.487-46.427 48.937-65.877 0 31.998.627 63.995.627 95.992h34.507c0-57.72 0-116.068 0-173.7886-4.392-1.8822-8.156-2.5096-12.548-2.5096z"/><path d="m1130.57 148.068c-24.47-13.176-58.98-9.411-78.43 9.411-22.59 21.331-26.98 47.682-17.57 75.287 9.41 28.233 30.75 41.408 59.61 43.29 22.58 1.255 43.29-4.391 62.74-17.567-4.4-8.156-8.79-15.685-13.18-23.213-42.03 20.076-74.66 13.802-78.42-15.058h94.73c.63-2.509 1.26-4.392 1.89-6.274 3.76-27.605-8.79-53.956-31.37-65.876zm-65.25 47.054c1.88-15.685 15.68-26.978 32.62-26.978 16.31 0 28.86 10.666 30.74 26.978-20.7 0-42.03 0-63.36 0z"/><path d="m1288.04 143.672c-5.64 0-10.66 0-16.31-.627-3.14 0-6.27 0-8.78 1.255-3.77 1.882-5.02 6.901-6.9 10.665-7.53 24.469-15.69 48.31-24.47 72.151-10.04-25.723-20.08-51.447-30.74-76.542-.63-1.883-1.89-4.392-3.77-5.647s-4.39-1.255-6.27-1.255c-5.65 0-11.3 0-16.32 0-2.51 0-5.64 0-8.15 0-1.26 0-2.51 0-3.77 0-1.25 0-1.88 0-1.25 1.255.63 2.51 2.51 5.019 3.14 7.529 1.25 2.509 2.51 5.019 3.13 7.529 2.51 5.019 4.39 10.038 6.9 15.057 8.79 20.077 18.2 40.781 26.98 60.858 3.77 8.156 6.9 16.312 10.67 24.468 1.88 3.764 3.14 7.529 3.14 11.293s-1.89 8.156-3.77 11.293c-8.16 11.921-26.35 16.312-39.53 9.411-1.88 9.411-3.76 18.195-5.64 27.606 13.17 7.528 30.11 9.41 43.92 3.137 10.03-4.392 18.19-13.176 24.46-22.587 6.28-9.411 10.04-20.076 14.43-30.742 16.32-42.036 32.63-84.699 48.31-126.734-3.13.627-6.27.627-9.41.627z"/><path d="m811.223 140.543c-40.153 0-69.641 28.86-69.641 67.759 0 39.526 29.488 68.386 69.641 68.386 39.526 0 69.014-29.488 69.014-69.014 0-38.271-29.488-67.131-69.014-67.131zm0 104.775c-20.076 0-36.389-16.312-35.761-37.644 0-20.076 15.685-36.389 35.761-36.389 19.45 0 35.762 16.313 35.762 36.389 0 20.704-15.685 37.644-35.762 37.644z"/><path d="m1562.21 140.543c-40.15 0-69.64 28.233-69.64 67.131 0 39.526 28.86 69.014 69.02 69.014 39.52 0 69.01-28.86 69.64-68.386 0-38.271-30.12-67.759-69.02-67.759zm-1.25 104.775c-20.08 0-35.14-16.94-35.14-37.644 0-20.076 15.69-36.389 35.77-36.389 20.07 0 36.38 16.94 35.76 37.017-.63 20.704-16.32 37.643-36.39 37.016z"/><path d="m985.009 143.046c-20.704-6.274-40.153-3.137-55.211 15.057-.627.628-1.254.628-2.509 1.255 0-5.019-.627-9.411-.627-14.43-10.666 0-21.332 0-31.998 0v127.989h33.252c0-3.765 0-6.274 0-9.411 0-20.704 0-42.036.628-62.74.627-17.567 12.548-28.86 28.86-29.487 16.312 0 26.978 10.665 27.605 28.86.628 21.331 0 42.663 0 63.367v8.783h33.251c0-29.487 1.26-58.347-.63-86.58-.62-20.704-11.92-36.389-32.621-42.663z"/><path d="m1768 188.215c-.63-21.331-11.29-37.016-32-44.545-20.07-7.529-41.41-1.882-55.84 13.175-.62.628-1.88 1.255-3.13 2.51 0-5.647-.63-10.039-.63-15.058-10.67 0-21.33 0-31.37 0v127.989h33.25c0-3.764 0-7.529 0-10.666 0-21.331-.63-42.663.63-63.367.63-16.312 13.8-27.605 29.49-26.978 15.05.628 25.09 10.666 26.35 27.606v10.038 55.211 8.783h33.25c.63-28.86 1.25-57.093 0-84.698z"/><path d="m1343.25 98.502c-11.92 0-23.21 0-34.5 0v174.416h122.97c0-11.293 0-21.959 0-33.879-29.49 0-58.98 0-89.09 0 .62-47.682.62-94.11.62-140.537z"/><path d="m1445.52 272.92h32.62c0-42.663 0-85.325 0-127.988-10.66 0-21.33 0-32.62 0z"/><path d="m1461.83 88.4766c-11.92 0-21.33 9.4109-20.7 20.7044.62 11.293 9.41 20.076 20.7 20.076 11.92 0 20.08-8.783 20.08-20.704.63-11.9203-8.16-20.0764-20.08-20.0764z"/><path d="m1776.16 85.3301c-13.18 0-23.84 10.6657-23.84 23.2139 0 13.175 10.66 23.841 23.84 23.841 13.8 0 23.84-10.666 23.84-23.841 0-13.1756-10.04-23.2139-23.84-23.2139zm0 42.0359c-10.67 0-18.2-8.157-18.2-18.822 0-10.0386 7.53-18.8222 18.2-18.8222 10.66 0 18.19 8.1562 18.19 18.8222 0 10.665-7.53 18.822-18.19 18.822z"/><path d="m1781.8 109.163c3.14-1.255 5.02-3.137 5.02-5.646 0-2.51-1.25-4.3922-2.51-5.0196-1.88-1.2548-3.76-1.8822-8.15-1.8822-3.77 0-6.9 0-8.79.6274v23.2134h5.65v-9.411h2.51c3.14 0 4.39 1.255 5.02 3.765.63 2.509 1.25 5.019 1.88 5.646h5.65c-.63-.627-1.26-2.509-1.88-5.646-1.26-3.137-2.51-4.392-4.4-5.647zm-6.9-1.882h-2.51v-6.274h3.14c3.14 0 5.02 1.255 5.02 3.764 0 1.883-2.51 2.51-5.65 2.51z"/></g></svg>